<?xml version="1.0" encoding="UTF-8"?>
<svg id="Graphic" xmlns="http://www.w3.org/2000/svg" viewBox="0 0 712.33 294.81">
  <defs>
    <style>
      .cls-1 {
        fill: #fc0053;
      }

      .cls-1, .cls-2 {
        stroke-width: 0px;
      }

      .cls-2 {
        fill: #000;
      }
    </style>
  </defs>
  <path class="cls-2" d="M6.35,58.74h13.15v56.83H6.35v-56.83Z"/>
  <path class="cls-2" d="M107.35,93.73c0,13.72-9.5,22.49-21.76,22.49-5.85,0-10.56-1.87-13.72-5.68v5.03h-12.1v-60.24h12.67v21.19c3.25-3.57,7.71-5.28,13.15-5.28,12.26,0,21.76,8.77,21.76,22.49ZM94.53,93.73c0-7.55-4.79-12.1-11.12-12.1s-11.12,4.55-11.12,12.1,4.79,12.1,11.12,12.1,11.12-4.55,11.12-12.1Z"/>
  <path class="cls-2" d="M145.27,71.24v11.69c-1.06-.08-1.87-.16-2.84-.16-6.98,0-11.61,3.82-11.61,12.18v20.62h-12.67v-43.68h12.1v5.76c3.09-4.22,8.28-6.41,15.02-6.41Z"/>
  <path class="cls-2" d="M153.63,58.74c0-3.98,3.17-7.06,7.88-7.06s7.88,2.92,7.88,6.82c0,4.22-3.17,7.31-7.88,7.31s-7.88-3.09-7.88-7.06ZM155.18,71.89h12.67v43.68h-12.67v-43.68Z"/>
  <path class="cls-2" d="M226.63,90.56v25.01h-12.67v-23.06c0-7.06-3.25-10.31-8.85-10.31-6.09,0-10.47,3.73-10.47,11.77v21.6h-12.67v-43.68h12.1v5.11c3.41-3.73,8.53-5.76,14.45-5.76,10.31,0,18.11,6.01,18.11,19.32Z"/>
  <path class="cls-2" d="M285.98,71.89v36.37c0,16.24-8.77,23.71-24.52,23.71-8.28,0-16.32-2.03-21.43-6.01l5.03-9.09c3.73,3,9.82,4.95,15.43,4.95,8.93,0,12.83-4.06,12.83-11.94v-1.87c-3.33,3.65-8.12,5.44-13.8,5.44-12.1,0-21.84-8.36-21.84-21.11s9.74-21.11,21.84-21.11c6.09,0,11.12,2.03,14.45,6.25v-5.6h12.02ZM273.47,92.35c0-6.41-4.79-10.72-11.45-10.72s-11.53,4.3-11.53,10.72,4.87,10.72,11.53,10.72,11.45-4.3,11.45-10.72Z"/>
  <path class="cls-2" d="M322.19,93.73c0-13.15,10.15-22.49,24.36-22.49,9.17,0,16.4,3.98,19.57,11.12l-9.82,5.28c-2.35-4.14-5.85-6.01-9.82-6.01-6.41,0-11.45,4.47-11.45,12.1s5.03,12.1,11.45,12.1c3.98,0,7.47-1.79,9.82-6.01l9.82,5.36c-3.17,6.98-10.39,11.04-19.57,11.04-14.21,0-24.36-9.34-24.36-22.49Z"/>
  <path class="cls-2" d="M420.11,90.56v25.01h-12.67v-23.06c0-7.06-3.25-10.31-8.85-10.31-6.09,0-10.47,3.73-10.47,11.77v21.6h-12.67v-60.24h12.67v21.11c3.41-3.41,8.28-5.2,13.88-5.2,10.31,0,18.11,6.01,18.11,19.32Z"/>
  <path class="cls-2" d="M472.56,90.65v24.93h-11.85v-5.44c-2.35,3.98-6.9,6.09-13.32,6.09-10.23,0-16.32-5.68-16.32-13.23s5.44-13.07,18.76-13.07h10.07c0-5.44-3.25-8.61-10.07-8.61-4.63,0-9.42,1.54-12.58,4.06l-4.55-8.85c4.79-3.41,11.85-5.28,18.84-5.28,13.32,0,21.03,6.17,21.03,19.41ZM459.89,101.77v-4.47h-8.69c-5.93,0-7.79,2.19-7.79,5.11,0,3.17,2.68,5.28,7.15,5.28,4.22,0,7.88-1.95,9.34-5.93Z"/>
  <path class="cls-2" d="M531.02,90.56v25.01h-12.67v-23.06c0-7.06-3.25-10.31-8.85-10.31-6.09,0-10.47,3.73-10.47,11.77v21.6h-12.67v-43.68h12.1v5.11c3.41-3.73,8.53-5.76,14.45-5.76,10.31,0,18.11,6.01,18.11,19.32Z"/>
  <path class="cls-2" d="M590.37,71.89v36.37c0,16.24-8.77,23.71-24.52,23.71-8.28,0-16.32-2.03-21.43-6.01l5.03-9.09c3.73,3,9.82,4.95,15.43,4.95,8.93,0,12.83-4.06,12.83-11.94v-1.87c-3.33,3.65-8.12,5.44-13.8,5.44-12.1,0-21.84-8.36-21.84-21.11s9.74-21.11,21.84-21.11c6.09,0,11.12,2.03,14.45,6.25v-5.6h12.02ZM577.86,92.35c0-6.41-4.79-10.72-11.45-10.72s-11.53,4.3-11.53,10.72,4.87,10.72,11.53,10.72,11.45-4.3,11.45-10.72Z"/>
  <path class="cls-2" d="M647.04,97.3h-33.05c1.22,5.44,5.85,8.77,12.5,8.77,4.63,0,7.96-1.38,10.96-4.22l6.74,7.31c-4.06,4.63-10.15,7.06-18.02,7.06-15.1,0-24.93-9.5-24.93-22.49s9.99-22.49,23.3-22.49,22.73,8.61,22.73,22.65c0,.97-.16,2.35-.24,3.41ZM613.83,89.91h21.52c-.89-5.52-5.03-9.09-10.72-9.09s-9.91,3.49-10.8,9.09Z"/>
  <path class="cls-2" d="M56.81,151.26l-18.43,43.68h-13.07l-18.35-43.68h13.07l12.1,29.72,12.5-29.72h12.18Z"/>
  <path class="cls-2" d="M101.55,170.02v24.93h-11.85v-5.44c-2.35,3.98-6.9,6.09-13.32,6.09-10.23,0-16.32-5.68-16.32-13.23s5.44-13.07,18.76-13.07h10.07c0-5.44-3.25-8.61-10.07-8.61-4.63,0-9.42,1.54-12.58,4.06l-4.55-8.85c4.79-3.41,11.85-5.28,18.84-5.28,13.32,0,21.03,6.17,21.03,19.41ZM88.89,181.14v-4.47h-8.69c-5.93,0-7.79,2.19-7.79,5.11,0,3.17,2.68,5.28,7.15,5.28,4.22,0,7.88-1.95,9.34-5.93Z"/>
  <path class="cls-2" d="M115.36,134.7h12.67v60.24h-12.67v-60.24Z"/>
  <path class="cls-2" d="M186.16,151.26v43.68h-12.02v-5.2c-3.33,3.82-8.2,5.85-13.56,5.85-10.96,0-18.67-6.17-18.67-19.65v-24.68h12.67v22.81c0,7.31,3.25,10.55,8.85,10.55s10.07-3.73,10.07-11.77v-21.6h12.67Z"/>
  <path class="cls-2" d="M242.83,176.67h-33.05c1.22,5.44,5.85,8.77,12.5,8.77,4.63,0,7.96-1.38,10.96-4.22l6.74,7.31c-4.06,4.63-10.15,7.06-18.02,7.06-15.1,0-24.93-9.5-24.93-22.49s9.99-22.49,23.3-22.49,22.73,8.61,22.73,22.65c0,.97-.16,2.35-.24,3.41ZM209.62,169.28h21.52c-.89-5.52-5.03-9.09-10.72-9.09s-9.91,3.49-10.8,9.09Z"/>
  <path class="cls-2" d="M307.38,192.83c-2.6,1.87-6.41,2.76-10.31,2.76-10.31,0-16.32-5.28-16.32-15.67v-17.94h-6.74v-9.74h6.74v-10.64h12.67v10.64h10.88v9.74h-10.88v17.78c0,3.73,2.03,5.76,5.44,5.76,1.87,0,3.73-.57,5.12-1.62l3.41,8.93Z"/>
  <path class="cls-2" d="M361.53,169.93v25.01h-12.67v-23.06c0-7.06-3.25-10.31-8.85-10.31-6.09,0-10.47,3.73-10.47,11.77v21.6h-12.67v-60.24h12.67v21.11c3.41-3.41,8.28-5.2,13.88-5.2,10.31,0,18.11,6.01,18.11,19.32Z"/>
  <path class="cls-2" d="M402.45,150.61v11.69c-1.06-.08-1.87-.16-2.84-.16-6.98,0-11.61,3.82-11.61,12.18v20.62h-12.67v-43.68h12.1v5.76c3.09-4.22,8.28-6.41,15.02-6.41Z"/>
  <path class="cls-2" d="M408.71,173.1c0-13.15,10.15-22.49,24.03-22.49s23.95,9.34,23.95,22.49-10.07,22.49-23.95,22.49-24.03-9.34-24.03-22.49ZM443.86,173.1c0-7.55-4.79-12.1-11.12-12.1s-11.2,4.55-11.2,12.1,4.87,12.1,11.2,12.1,11.12-4.55,11.12-12.1Z"/>
  <path class="cls-2" d="M511.5,151.26v43.68h-12.02v-5.2c-3.33,3.82-8.2,5.85-13.56,5.85-10.96,0-18.67-6.17-18.67-19.65v-24.68h12.67v22.81c0,7.31,3.25,10.55,8.85,10.55s10.07-3.73,10.07-11.77v-21.6h12.67Z"/>
  <path class="cls-2" d="M570.69,151.26v36.37c0,16.24-8.77,23.71-24.52,23.71-8.28,0-16.32-2.03-21.43-6.01l5.03-9.09c3.73,3,9.82,4.95,15.43,4.95,8.93,0,12.83-4.06,12.83-11.94v-1.87c-3.33,3.65-8.12,5.44-13.8,5.44-12.1,0-21.84-8.36-21.84-21.11s9.74-21.11,21.84-21.11c6.09,0,11.12,2.03,14.45,6.25v-5.6h12.02ZM558.18,171.72c0-6.41-4.79-10.72-11.45-10.72s-11.53,4.3-11.53,10.72,4.87,10.72,11.53,10.72,11.45-4.3,11.45-10.72Z"/>
  <path class="cls-2" d="M629.47,169.93v25.01h-12.67v-23.06c0-7.06-3.25-10.31-8.85-10.31-6.09,0-10.47,3.73-10.47,11.77v21.6h-12.67v-60.24h12.67v21.11c3.41-3.41,8.28-5.2,13.88-5.2,10.31,0,18.11,6.01,18.11,19.32Z"/>
  <path class="cls-2" d="M53.95,215.07v60.24h-12.1v-5.03c-3.17,3.82-7.79,5.68-13.64,5.68-12.34,0-21.84-8.77-21.84-22.49s9.5-22.49,21.84-22.49c5.36,0,9.91,1.71,13.07,5.28v-21.19h12.67ZM41.53,253.47c0-7.55-4.87-12.1-11.12-12.1s-11.2,4.55-11.2,12.1,4.87,12.1,11.2,12.1,11.12-4.55,11.12-12.1Z"/>
  <path class="cls-2" d="M110.54,257.04h-33.05c1.22,5.44,5.85,8.77,12.5,8.77,4.63,0,7.96-1.38,10.96-4.22l6.74,7.31c-4.06,4.63-10.15,7.06-18.02,7.06-15.1,0-24.93-9.5-24.93-22.49s9.99-22.49,23.3-22.49,22.73,8.61,22.73,22.65c0,.97-.16,2.35-.24,3.41ZM77.34,249.65h21.52c-.89-5.52-5.03-9.09-10.72-9.09s-9.91,3.49-10.8,9.09Z"/>
  <path class="cls-2" d="M117.36,271.25l4.22-9.09c3.9,2.52,9.82,4.22,15.18,4.22,5.85,0,8.04-1.54,8.04-3.98,0-7.15-26.39.16-26.39-17.29,0-8.28,7.47-14.13,20.22-14.13,6.01,0,12.67,1.38,16.81,3.82l-4.22,9.01c-4.3-2.44-8.61-3.25-12.58-3.25-5.68,0-8.12,1.79-8.12,4.06,0,7.47,26.39.24,26.39,17.46,0,8.12-7.55,13.88-20.62,13.88-7.39,0-14.86-2.03-18.92-4.71Z"/>
  <path class="cls-2" d="M165.51,218.48c0-3.98,3.17-7.06,7.88-7.06s7.88,2.92,7.88,6.82c0,4.22-3.17,7.31-7.88,7.31s-7.88-3.09-7.88-7.06ZM167.05,231.63h12.67v43.68h-12.67v-43.68Z"/>
  <path class="cls-2" d="M238.91,231.63v36.37c0,16.24-8.77,23.71-24.52,23.71-8.28,0-16.32-2.03-21.43-6.01l5.03-9.09c3.73,3,9.82,4.95,15.43,4.95,8.93,0,12.83-4.06,12.83-11.94v-1.87c-3.33,3.65-8.12,5.44-13.8,5.44-12.1,0-21.84-8.36-21.84-21.11s9.74-21.11,21.84-21.11c6.09,0,11.12,2.03,14.45,6.25v-5.6h12.02ZM226.4,252.09c0-6.41-4.79-10.72-11.45-10.72s-11.53,4.3-11.53,10.72,4.87,10.72,11.53,10.72,11.45-4.3,11.45-10.72Z"/>
  <path class="cls-2" d="M297.69,250.3v25.01h-12.67v-23.06c0-7.06-3.25-10.31-8.85-10.31-6.09,0-10.47,3.73-10.47,11.77v21.6h-12.67v-43.68h12.1v5.11c3.41-3.73,8.53-5.76,14.45-5.76,10.31,0,18.11,6.01,18.11,19.32Z"/>
  <path class="cls-2" d="M307.27,271.25l4.22-9.09c3.9,2.52,9.82,4.22,15.18,4.22,5.85,0,8.04-1.54,8.04-3.98,0-7.15-26.39.16-26.39-17.29,0-8.28,7.47-14.13,20.22-14.13,6.01,0,12.67,1.38,16.81,3.82l-4.22,9.01c-4.3-2.44-8.61-3.25-12.58-3.25-5.68,0-8.12,1.79-8.12,4.06,0,7.47,26.39.24,26.39,17.46,0,8.12-7.55,13.88-20.62,13.88-7.39,0-14.86-2.03-18.92-4.71Z"/>
  <path class="cls-1" d="M354.97,265.11c0-6.58,4.88-10.89,11-10.89s11,4.31,11,10.89-4.88,11.11-11,11.11-11-4.65-11-11.11Z"/>
  <path class="cls-1" d="M311.8,100.81c.19-.06.37-.12.56-.17-.69.21.67-.18,1.23-.33,2.42-.65,4.87-1.2,7.32-1.72,10.52-2.23,21.18-3.78,31.84-5.08,19.73-2.42,39.58-3.91,59.43-4.94,30.49-1.58,61.03-2.04,91.56-1.87,43.23.24,86.46,1.77,129.63,4.07,6.28.34,12.57.69,18.84,1.06,2.73.16,3.02-8.94.12-9.11-44.84-2.63-89.72-4.47-134.64-5.01-32.21-.38-64.45-.12-96.63,1.32-21.01.94-42,2.36-62.9,4.74-11.66,1.33-23.3,2.92-34.81,5.23-2.84.57-5.69,1.18-8.5,1.9-1.13.29-2.89.46-3.87,1.07-.04.02-.09.03-.13.04-2.48.81-2.11,9.8.95,8.79h0Z"/>
  <g>
    <path class="cls-2" d="M42.98,28.51c-.19,0-.34-.07-.45-.22s-.15-.32-.13-.54l.83-5.15c.05-.29.15-.53.31-.74.16-.2.39-.31.7-.31h2.41c.17,0,.31.06.41.18s.16.26.16.43c0,.19-.05.38-.14.58l-1.87,4.93c-.1.24-.22.44-.38.59-.16.16-.38.23-.67.23h-1.19Z"/>
    <path class="cls-2" d="M7.52,25.81c-.26,0-.47-.08-.61-.23-.14-.16-.22-.35-.22-.59V1.48c0-.26.07-.47.22-.63.14-.16.35-.23.61-.23h1.84c.26,0,.47.08.63.23.16.16.23.37.23.63v9.94h12.38V1.48c0-.26.08-.47.23-.63s.35-.23.59-.23h1.84c.26,0,.47.08.63.23.16.16.23.37.23.63v23.51c0,.24-.08.44-.23.59s-.37.23-.63.23h-1.84c-.24,0-.44-.08-.59-.23-.16-.16-.23-.35-.23-.59v-10.33h-12.38v10.33c0,.24-.08.44-.23.59-.16.16-.37.23-.63.23h-1.84Z"/>
    <path class="cls-2" d="M32.43,3.6c-.24,0-.44-.08-.59-.23-.16-.16-.23-.35-.23-.59V.83c0-.24.08-.44.23-.59.16-.16.35-.23.59-.23h2.27c.24,0,.44.08.59.23.16.16.23.35.23.59v1.94c0,.24-.08.44-.23.59-.16.16-.35.23-.59.23h-2.27ZM32.72,25.81c-.24,0-.44-.08-.59-.23-.16-.16-.23-.35-.23-.59V7.92c0-.24.08-.44.23-.59s.35-.23.59-.23h1.73c.24,0,.43.08.58.23.14.16.22.35.22.59v17.06c0,.24-.07.44-.22.59-.14.16-.34.23-.58.23h-1.73Z"/>
    <path class="cls-2" d="M59.68,25.81c-.26,0-.47-.08-.61-.23-.14-.16-.22-.35-.22-.59V1.44c0-.24.07-.44.22-.59.14-.16.35-.23.61-.23h1.91c.24,0,.44.08.59.23.16.16.23.35.23.59v23.54c0,.24-.08.44-.23.59s-.35.23-.59.23h-1.91Z"/>
    <path class="cls-2" d="M68.18,7.2c-.19,0-.34-.07-.45-.22-.11-.14-.15-.32-.13-.54l.83-5.15c.05-.29.15-.53.31-.74.16-.2.39-.31.7-.31h2.41c.17,0,.31.07.41.2s.16.27.16.41c0,.19-.05.38-.14.58l-1.87,4.93c-.1.24-.22.44-.38.59-.16.16-.39.23-.7.23h-1.15Z"/>
    <path class="cls-2" d="M76.68,25.81c-.24,0-.44-.08-.59-.23-.16-.16-.23-.35-.23-.59V7.92c0-.24.08-.44.23-.59s.35-.23.59-.23h1.62c.24,0,.44.08.59.23.16.16.23.35.23.59v1.26c.55-.74,1.25-1.34,2.09-1.78.84-.44,1.85-.67,3.02-.67,2.71-.02,4.63,1.08,5.76,3.31.55-1.01,1.36-1.81,2.41-2.41,1.06-.6,2.26-.9,3.6-.9,1.25,0,2.38.29,3.4.86,1.02.58,1.82,1.45,2.41,2.61.59,1.16.88,2.62.88,4.37v10.4c0,.24-.08.44-.23.59-.16.16-.35.23-.59.23h-1.69c-.24,0-.44-.08-.59-.23-.16-.16-.23-.35-.23-.59v-10.08c0-1.34-.19-2.4-.58-3.17-.38-.77-.9-1.31-1.55-1.62s-1.36-.47-2.12-.47c-.62,0-1.26.16-1.91.47s-1.18.85-1.6,1.62c-.42.77-.63,1.82-.63,3.17v10.08c0,.24-.08.44-.23.59-.16.16-.35.23-.59.23h-1.69c-.24,0-.44-.08-.59-.23-.16-.16-.23-.35-.23-.59v-10.08c0-1.34-.2-2.4-.61-3.17-.41-.77-.94-1.31-1.58-1.62-.65-.31-1.33-.47-2.05-.47-.62,0-1.26.16-1.91.47-.65.31-1.18.85-1.6,1.62-.42.77-.63,1.81-.63,3.13v10.12c0,.24-.08.44-.23.59s-.35.23-.59.23h-1.73Z"/>
    <path class="cls-2" d="M117.97,25.81c-.26,0-.47-.08-.61-.23-.14-.16-.22-.35-.22-.59V1.48c0-.26.07-.47.22-.63.14-.16.35-.23.61-.23h1.8c.26,0,.47.08.63.23.16.16.23.37.23.63v8.93l9.61-9.22c.1-.1.26-.22.49-.36.23-.14.53-.22.92-.22h1.94c.19,0,.36.07.5.22s.22.31.22.5-.05.35-.14.47l-11.12,10.87,11.84,11.92c.12.14.18.31.18.5s-.07.36-.22.5c-.14.14-.31.22-.5.22h-2.02c-.41,0-.72-.08-.94-.23-.22-.16-.37-.27-.47-.34l-10.3-10.15v9.9c0,.24-.08.44-.23.59-.16.16-.37.23-.63.23h-1.8Z"/>
    <path class="cls-2" d="M143.28,26.17c-1.2,0-2.29-.24-3.28-.72-.98-.48-1.78-1.13-2.38-1.94-.6-.82-.9-1.74-.9-2.77,0-1.66.67-2.98,2.02-3.96,1.34-.98,3.1-1.63,5.26-1.94l5.36-.76v-1.04c0-1.15-.33-2.05-.99-2.7-.66-.65-1.73-.97-3.22-.97-1.08,0-1.95.22-2.61.65-.66.43-1.12.98-1.39,1.66-.14.36-.4.54-.76.54h-1.62c-.26,0-.46-.08-.59-.23-.13-.16-.2-.34-.2-.56,0-.36.14-.8.41-1.33.28-.53.7-1.04,1.28-1.55.58-.5,1.31-.93,2.21-1.28.9-.35,2-.52,3.29-.52,1.44,0,2.65.19,3.64.56.98.37,1.76.87,2.32,1.49.56.62.97,1.33,1.22,2.12s.38,1.6.38,2.41v11.66c0,.24-.08.44-.23.59-.16.16-.35.23-.59.23h-1.66c-.26,0-.47-.08-.61-.23-.14-.16-.22-.35-.22-.59v-1.55c-.31.43-.73.86-1.26,1.28-.53.42-1.19.77-1.98,1.04-.79.28-1.76.41-2.92.41ZM144.03,23.47c.98,0,1.88-.21,2.7-.63.82-.42,1.46-1.07,1.93-1.96.47-.89.7-2,.7-3.35v-1.01l-4.18.61c-1.7.24-2.99.64-3.85,1.21-.86.56-1.3,1.28-1.3,2.14,0,.67.2,1.23.59,1.67.4.44.9.77,1.51.99s1.24.32,1.89.32Z"/>
    <path class="cls-2" d="M158.76,25.81c-.24,0-.44-.08-.59-.23-.16-.16-.23-.35-.23-.59V7.96c0-.24.08-.44.23-.61.16-.17.35-.25.59-.25h1.66c.24,0,.44.08.61.25s.25.37.25.61v1.58c.48-.82,1.14-1.43,1.98-1.84.84-.41,1.85-.61,3.02-.61h1.44c.24,0,.43.08.58.23.14.16.22.35.22.59v1.48c0,.24-.07.43-.22.58-.14.14-.34.22-.58.22h-2.16c-1.3,0-2.32.38-3.06,1.13-.74.76-1.12,1.78-1.12,3.08v10.58c0,.24-.08.44-.25.59-.17.16-.37.23-.61.23h-1.76Z"/>
    <path class="cls-2" d="M172.44,25.81c-.24,0-.44-.08-.59-.23-.16-.16-.23-.35-.23-.59V7.92c0-.24.08-.44.23-.59s.35-.23.59-.23h1.62c.24,0,.44.08.59.23.16.16.23.35.23.59v1.26c.55-.74,1.25-1.34,2.09-1.78.84-.44,1.85-.67,3.02-.67,2.71-.02,4.63,1.08,5.76,3.31.55-1.01,1.36-1.81,2.41-2.41,1.06-.6,2.26-.9,3.6-.9,1.25,0,2.38.29,3.4.86,1.02.58,1.82,1.45,2.41,2.61.59,1.16.88,2.62.88,4.37v10.4c0,.24-.08.44-.23.59-.16.16-.35.23-.59.23h-1.69c-.24,0-.44-.08-.59-.23-.16-.16-.23-.35-.23-.59v-10.08c0-1.34-.19-2.4-.58-3.17-.38-.77-.9-1.31-1.55-1.62s-1.36-.47-2.12-.47c-.62,0-1.26.16-1.91.47s-1.18.85-1.6,1.62c-.42.77-.63,1.82-.63,3.17v10.08c0,.24-.08.44-.23.59-.16.16-.35.23-.59.23h-1.69c-.24,0-.44-.08-.59-.23-.16-.16-.23-.35-.23-.59v-10.08c0-1.34-.2-2.4-.61-3.17-.41-.77-.94-1.31-1.58-1.62-.65-.31-1.33-.47-2.05-.47-.62,0-1.26.16-1.91.47-.65.31-1.18.85-1.6,1.62-.42.77-.63,1.81-.63,3.13v10.12c0,.24-.08.44-.23.59s-.35.23-.59.23h-1.73Z"/>
    <path class="cls-2" d="M208.83,26.17c-1.2,0-2.29-.24-3.28-.72-.98-.48-1.78-1.13-2.38-1.94-.6-.82-.9-1.74-.9-2.77,0-1.66.67-2.98,2.02-3.96,1.34-.98,3.1-1.63,5.26-1.94l5.36-.76v-1.04c0-1.15-.33-2.05-.99-2.7-.66-.65-1.73-.97-3.22-.97-1.08,0-1.95.22-2.61.65-.66.43-1.12.98-1.39,1.66-.14.36-.4.54-.76.54h-1.62c-.26,0-.46-.08-.59-.23-.13-.16-.2-.34-.2-.56,0-.36.14-.8.41-1.33.28-.53.7-1.04,1.28-1.55.58-.5,1.31-.93,2.21-1.28.9-.35,2-.52,3.29-.52,1.44,0,2.65.19,3.64.56.98.37,1.76.87,2.32,1.49.56.62.97,1.33,1.22,2.12s.38,1.6.38,2.41v11.66c0,.24-.08.44-.23.59-.16.16-.35.23-.59.23h-1.66c-.26,0-.47-.08-.61-.23-.14-.16-.22-.35-.22-.59v-1.55c-.31.43-.73.86-1.26,1.28-.53.42-1.19.77-1.98,1.04-.79.28-1.76.41-2.92.41ZM209.59,23.47c.98,0,1.88-.21,2.7-.63.82-.42,1.46-1.07,1.93-1.96.47-.89.7-2,.7-3.35v-1.01l-4.18.61c-1.7.24-2.99.64-3.85,1.21-.86.56-1.3,1.28-1.3,2.14,0,.67.2,1.23.59,1.67.4.44.9.77,1.51.99s1.24.32,1.89.32Z"/>
    <path class="cls-2" d="M238.21,25.81c-.24,0-.44-.08-.59-.23-.16-.16-.23-.35-.23-.59V3.82h-6.91c-.24,0-.44-.08-.59-.23-.16-.16-.23-.35-.23-.59v-1.51c0-.26.08-.47.23-.63.16-.16.35-.23.59-.23h17.35c.26,0,.47.08.63.23.16.16.23.37.23.63v1.51c0,.24-.08.44-.23.59s-.37.23-.63.23h-6.88v21.17c0,.24-.08.44-.23.59-.16.16-.37.23-.63.23h-1.87Z"/>
    <path class="cls-2" d="M255.49,26.17c-1.34,0-2.5-.17-3.46-.5-.96-.34-1.74-.74-2.34-1.22-.6-.48-1.05-.96-1.35-1.44-.3-.48-.46-.86-.49-1.15-.02-.26.06-.47.25-.61.19-.14.38-.22.58-.22h1.58c.14,0,.26.02.34.05.08.04.2.14.34.31.31.34.66.67,1.04,1.01.38.34.86.61,1.42.83.56.22,1.27.32,2.11.32,1.22,0,2.23-.23,3.02-.7.79-.47,1.19-1.16,1.19-2.07,0-.6-.16-1.08-.49-1.44-.32-.36-.9-.68-1.73-.97-.83-.29-1.96-.59-3.4-.9-1.44-.34-2.58-.75-3.42-1.24-.84-.49-1.44-1.08-1.8-1.76-.36-.68-.54-1.46-.54-2.32s.26-1.75.79-2.57c.53-.83,1.3-1.51,2.32-2.03,1.02-.53,2.3-.79,3.83-.79,1.25,0,2.32.16,3.2.47.89.31,1.62.7,2.2,1.17.58.47,1.01.93,1.3,1.39.29.46.44.84.47,1.15.02.24-.05.44-.22.59-.17.16-.36.23-.58.23h-1.51c-.17,0-.31-.04-.41-.11-.11-.07-.21-.16-.31-.25-.24-.31-.52-.62-.85-.94-.32-.31-.74-.57-1.26-.77-.52-.2-1.19-.31-2.03-.31-1.2,0-2.1.25-2.7.76-.6.5-.9,1.14-.9,1.91,0,.46.13.86.4,1.22s.77.68,1.51.97c.74.29,1.85.6,3.31.94,1.58.31,2.83.73,3.74,1.26.91.53,1.56,1.14,1.94,1.84.38.7.58,1.5.58,2.41,0,1.01-.29,1.93-.88,2.77-.59.84-1.45,1.51-2.59,2-1.14.49-2.55.74-4.23.74Z"/>
    <path class="cls-2" d="M268.23,25.81c-.24,0-.44-.08-.59-.23-.16-.16-.23-.35-.23-.59V1.08c0-.24.08-.44.23-.59.16-.16.35-.23.59-.23h1.8c.26,0,.47.08.61.23.14.16.22.35.22.59v8.39c.65-.82,1.44-1.48,2.38-1.98.94-.5,2.12-.76,3.56-.76,1.56,0,2.89.34,3.98,1.03,1.09.68,1.92,1.63,2.48,2.84.56,1.21.85,2.62.85,4.23v10.15c0,.24-.07.44-.22.59-.14.16-.35.23-.61.23h-1.8c-.24,0-.44-.08-.59-.23-.16-.16-.23-.35-.23-.59v-9.97c0-1.68-.41-2.99-1.22-3.94-.82-.95-2.02-1.42-3.6-1.42-1.49,0-2.69.47-3.6,1.42-.91.95-1.37,2.26-1.37,3.94v9.97c0,.24-.07.44-.22.59-.14.16-.35.23-.61.23h-1.8Z"/>
    <path class="cls-2" d="M296.74,26.17c-2.47,0-4.44-.76-5.9-2.29s-2.27-3.61-2.41-6.25c-.02-.31-.04-.71-.04-1.21s.01-.89.04-1.21c.1-1.7.49-3.2,1.19-4.48.7-1.28,1.65-2.27,2.86-2.97,1.21-.7,2.63-1.04,4.27-1.04,1.82,0,3.35.38,4.59,1.15,1.24.77,2.18,1.86,2.83,3.28.65,1.42.97,3.07.97,4.97v.61c0,.26-.08.47-.23.61-.16.14-.35.22-.59.22h-12.46v.32c.05.98.26,1.9.65,2.75.38.85.94,1.54,1.66,2.07.72.53,1.58.79,2.59.79.86,0,1.58-.13,2.16-.4.58-.26,1.04-.56,1.4-.88.36-.32.6-.57.72-.74.22-.31.38-.5.5-.56.12-.06.31-.09.58-.09h1.73c.24,0,.44.07.59.2.16.13.22.32.2.56-.02.36-.22.8-.58,1.31-.36.52-.88,1.03-1.55,1.53-.67.5-1.49.92-2.45,1.24-.96.32-2.06.49-3.31.49ZM291.85,15.08h9.86v-.11c0-1.08-.2-2.04-.59-2.88-.4-.84-.97-1.51-1.71-2-.74-.49-1.63-.74-2.66-.74s-1.91.25-2.65.74c-.73.49-1.29,1.16-1.67,2-.38.84-.58,1.8-.58,2.88v.11Z"/>
    <path class="cls-2" d="M310.28,25.81c-.24,0-.44-.08-.59-.23-.16-.16-.23-.35-.23-.59V7.96c0-.24.08-.44.23-.61.16-.17.35-.25.59-.25h1.66c.24,0,.44.08.61.25s.25.37.25.61v1.58c.48-.82,1.14-1.43,1.98-1.84.84-.41,1.85-.61,3.02-.61h1.44c.24,0,.43.08.58.23.14.16.22.35.22.59v1.48c0,.24-.07.43-.22.58-.14.14-.34.22-.58.22h-2.16c-1.3,0-2.32.38-3.06,1.13-.74.76-1.12,1.78-1.12,3.08v10.58c0,.24-.08.44-.25.59-.17.16-.37.23-.61.23h-1.76Z"/>
    <path class="cls-2" d="M323.67,3.6c-.24,0-.44-.08-.59-.23-.16-.16-.23-.35-.23-.59V.83c0-.24.08-.44.23-.59.16-.16.35-.23.59-.23h2.27c.24,0,.44.08.59.23.16.16.23.35.23.59v1.94c0,.24-.08.44-.23.59-.16.16-.35.23-.59.23h-2.27ZM323.96,25.81c-.24,0-.44-.08-.59-.23-.16-.16-.23-.35-.23-.59V7.92c0-.24.08-.44.23-.59s.35-.23.59-.23h1.73c.24,0,.43.08.58.23.14.16.22.35.22.59v17.06c0,.24-.07.44-.22.59-.14.16-.34.23-.58.23h-1.73Z"/>
    <path class="cls-2" d="M332.99,25.81c-.24,0-.44-.08-.59-.23-.16-.16-.23-.35-.23-.59V7.92c0-.24.08-.44.23-.59s.35-.23.59-.23h1.69c.24,0,.44.08.59.23.16.16.23.35.23.59v1.58c.62-.82,1.41-1.48,2.36-2,.95-.52,2.17-.77,3.65-.77s2.89.34,3.98,1.03c1.09.68,1.91,1.63,2.47,2.84.55,1.21.83,2.62.83,4.23v10.15c0,.24-.07.44-.22.59-.14.16-.34.23-.58.23h-1.8c-.24,0-.44-.08-.59-.23-.16-.16-.23-.35-.23-.59v-9.97c0-1.68-.41-2.99-1.22-3.94-.82-.95-2.02-1.42-3.6-1.42-1.49,0-2.68.47-3.58,1.42-.9.95-1.35,2.26-1.35,3.94v9.97c0,.24-.08.44-.23.59-.16.16-.35.23-.59.23h-1.8Z"/>
    <path class="cls-2" d="M361.65,33.73c-1.63,0-2.97-.22-4.01-.65s-1.86-.95-2.45-1.57c-.59-.61-1.01-1.22-1.26-1.84-.25-.61-.39-1.1-.41-1.46-.02-.24.05-.44.23-.61.18-.17.38-.25.59-.25h1.73c.22,0,.4.05.54.14.14.1.26.3.36.61.14.36.36.76.65,1.21.29.44.73.83,1.33,1.15.6.32,1.44.49,2.52.49s2.08-.15,2.84-.45c.77-.3,1.35-.83,1.75-1.58.4-.76.59-1.79.59-3.11v-2.45c-.58.74-1.33,1.36-2.27,1.85-.94.49-2.11.74-3.53.74s-2.5-.23-3.46-.7c-.96-.47-1.75-1.1-2.36-1.91-.61-.8-1.07-1.72-1.37-2.75-.3-1.03-.47-2.11-.52-3.24-.02-.67-.02-1.33,0-1.98.05-1.13.22-2.21.52-3.24.3-1.03.76-1.96,1.37-2.77.61-.82,1.4-1.46,2.36-1.93.96-.47,2.11-.7,3.46-.7,1.44,0,2.63.27,3.58.81.95.54,1.72,1.19,2.32,1.96v-1.55c0-.24.08-.44.23-.61.16-.17.35-.25.59-.25h1.66c.24,0,.44.08.61.25.17.17.25.37.25.61v17.46c0,1.61-.27,3.04-.81,4.28-.54,1.25-1.43,2.23-2.66,2.95-1.24.72-2.9,1.08-4.99,1.08ZM361.58,23.08c1.2,0,2.17-.28,2.9-.83.73-.55,1.27-1.25,1.62-2.09.35-.84.53-1.69.56-2.56.02-.34.04-.75.04-1.24s-.01-.91-.04-1.24c-.02-.86-.21-1.72-.56-2.56-.35-.84-.89-1.54-1.62-2.09-.73-.55-1.7-.83-2.9-.83s-2.16.27-2.88.81c-.72.54-1.24,1.25-1.55,2.12-.31.88-.49,1.82-.54,2.83-.02.62-.02,1.26,0,1.91.05,1.01.23,1.95.54,2.83.31.88.83,1.58,1.55,2.12.72.54,1.68.81,2.88.81Z"/>
  </g>
</svg>